# xmcd CD database file
#
# Track frame offsets:
#	150
#	27462
#	46215
#	62360
#	74805
#	91800
#	108022
#	118180
#	146617
#	190422
#
# Disc length: 2804 seconds
#
# Revision: 0
# Processed by: cddbd v1.5.1PL0 Copyright (c) Steve Scherf et al.
# Submitted via: CDex 1.50
#
DISCID=8c0af20a
DTITLE=Brian Sklar - Live and Smokin'
DYEAR=1900
DGENRE=Country
TTITLE0=Bob Willis Medley
TTITLE1=West coast Flyer
TTITLE2=Devil went down to Georgia
TTITLE3=I've been everywhere
TTITLE4=William Tell Overture
TTITLE5=Guitar Boogie Shuffle
TTITLE6=Listen to the Mockingbird
TTITLE7=Songs of Pioneers Medley
TTITLE8=Brian's Orange Blossom
TTITLE9=Ghost Riders in the Sky
EXTD=
EXTT0=
EXTT1=
EXTT2=
EXTT3=
EXTT4=
EXTT5=
EXTT6=
EXTT7=
EXTT8=
EXTT9=
PLAYORDER=
